inDegrees=yes
name=ik_lifting_orientations
DataType=double
version=3
OpenSimVersion=4.5-2024-01-10-34fd6af
endheader
time	pelvis_tilt	pelvis_list	pelvis_rotation	pelvis_tx	pelvis_ty	pelvis_tz	hip_flexion_r	hip_adduction_r	hip_rotation_r	knee_angle_r	knee_angle_r_beta	ankle_angle_r	subtalar_angle_r	mtp_angle_r	hip_flexion_l	hip_adduction_l	hip_rotation_l	knee_angle_l	knee_angle_l_beta	ankle_angle_l	subtalar_angle_l	mtp_angle_l	lumbar_extension	lumbar_bending	lumbar_rotation	arm_flex_r	arm_add_r	arm_rot_r	elbow_flex_r	pro_sup_r	wrist_flex_r	wrist_dev_r	arm_flex_l	arm_add_l	arm_rot_l	elbow_flex_l	pro_sup_l	wrist_flex_l	wrist_dev_l
0.45	6.19165155500457	42.59122715162098	-96.66110409759744	0	0.9399999998679526	0	44.82453765546969	-12.15079399024105	0	60.05682266832528	1.048189293848643	-6.000172633030345	0	0	44.82453765546969	-12.15079399024105	0	60.05682266832528	1.048189293848643	-6.000172633030345	0	0	-4.260837251003391	36.06069963315053	-24.4592215003592	49.29958667318564	3.552887739139773	50.20077731123988	0.06162537485093534	3.224452444257674	0	0	0	-8.682164076237433	0	86.82691307779393	3.224452444257674	0	0
0.46	5.35135114949257	42.88873033278691	-95.88256298522498	0	0.9399999998679526	0	44.82463423412968	-12.14663652669844	0	60.05679822940327	1.048188867308988	-5.99765503105704	0	0	44.82463423412968	-12.14663652669844	0	60.05679822940327	1.048188867308988	-5.99765503105704	0	0	-4.94278286841718	36.90582915196293	-24.80192928591227	50.10795304297349	4.241972190065129	50.55881585936395	0.06140967919560378	3.22321698315319	0	0	0	-8.683948265451534	0	86.82812874510452	3.22321698315319	0	0
0.47	5.78609317149469	43.46711926648735	-95.29030267535163	0	0.9399999998679526	0	44.83022308484026	-11.94230110503387	0	60.05535282897541	1.048163640312512	-5.880723487436511	0	0	44.83022308484026	-11.94230110503387	0	60.05535282897541	1.048163640312512	-5.880723487436511	0	0	-4.424012498138212	37.20803309260005	-24.65246237790415	50.76487062476932	4.593659656495077	51.17395990883635	0.05848969324414164	3.149952680443175	0	0	0	-8.791458823907668	0	86.90021972080959	3.149952680443175	0	0
0.48	5.332786677743139	42.88452908984101	-95.8703736482331	0	0.9399999998679526	0	44.83031651929526	-11.9385663277825	0	60.05532893992237	1.048163223369881	-5.878519301261837	0	0	44.83031651929526	-11.9385663277825	0	60.05532893992237	1.048163223369881	-5.878519301261837	0	0	-5.71499440308665	37.41544052366557	-23.52231669389918	50.595234325057	4.430664153182226	51.73725682029717	0.06450064115435232	3.148744322308501	0	0	0	-8.793216224178634	0	86.901408722773	3.148744322308501	0	0
0.49	4.12065687589655	42.76776206725548	-94.78732805480331	0	0.9399999998679526	0	44.83040521085313	-11.93500901412455	0	60.05530634718278	1.048162829052188	-5.876419130026396	0	0	44.83040521085313	-11.93500901412455	0	60.05530634718278	1.048162829052188	-5.876419130026396	0	0	-4.78178545337594	38.12151644317346	-23.61232821593888	50.89729932187784	4.151579345137641	51.88537683469357	0.06717671937156056	3.147598795612703	0	0	0	-8.794880341532162	0	86.90253589947528	3.147598795612703	0	0
0.5	5.347495761710851	42.88270879842736	-95.88692586582758	0	0.9399999998679526	0	44.83049527656093	-11.93140519863984	0	60.05528338274569	1.04816242824715	-5.874293123789527	0	0	44.83049527656093	-11.93140519863984	0	60.05528338274569	1.04816242824715	-5.874293123789527	0	0	-4.187406520779329	35.91745746257728	-24.2775713965715	50.00184771211674	5.25022675319381	51.46560722802415	0.06706502899695339	3.14643496204678	0	0	0	-8.796571673655897	0	86.90368108991595	3.14643496204678	0	0
0.51	4.143174969563267	42.74522063461205	-94.82005940319929	0	0.9399999998679526	0	44.83054816401891	-11.92932616098879	0	60.05526971769712	1.04816218974706	-5.873071067229751	0	0	44.83054816401891	-11.92932616098879	0	60.05526971769712	1.04816218974706	-5.873071067229751	0	0	-4.296742000800514	36.78978163124656	-24.48595903561721	50.34492265608174	5.582776696887339	51.74350515749131	0.08764636335990519	3.145747988061521	0	0	0	-8.797574361263877	0	86.90435706017728	3.145747988061521	0	0
0.52	4.128741488621098	42.77324480718711	-94.79877454525509	0	0.9399999998679526	0	44.83058138357041	-11.92800519434986	0	60.05526121483958	1.0481620413442	-5.872292983551647	0	0	44.83058138357041	-11.92800519434986	0	60.05526121483958	1.0481620413442	-5.872292983551647	0	0	-4.231622193065803	36.82349161429314	-24.51291183323038	50.67628032875918	5.969748404379907	51.94705007241624	0.06440665496493518	3.145318027587344	0	0	0	-8.798200025810319	0	86.90478013337915	3.145318027587344	0	0
0.53	4.123963881497697	42.77159005801635	-94.79239199179696	0	0.9399999998679526	0	44.83060577202201	-11.92702913146414	0	60.05525500808358	1.048161933015872	-5.871717456666709	0	0	44.83060577202201	-11.92702913146414	0	60.05525500808358	1.048161933015872	-5.871717456666709	0	0	-4.22932593248284	36.82381245977613	-24.52434497018746	50.66980826418342	5.971914294102979	51.95102980464363	0.06456161886399746	3.145003043864981	0	0	0	-8.798657535060718	0	86.90509007143523	3.145003043864981	0	0
0.54	4.30625393132034	41.85478185477508	-94.2871362607215	0	0.9399999998679526	0	44.83065434574689	-11.92510060462121	0	60.05524256975083	1.048161715926012	-5.870582124614761	0	0	44.83065434574689	-11.92510060462121	0	60.05524256975083	1.048161715926012	-5.870582124614761	0	0	-4.66867682717848	36.66065278315475	-25.31808604886165	51.54529705032355	5.783674464069809	52.2008671264002	0.100799383751151	3.144374191082487	0	0	0	-8.799572789064031	0	86.90570885104783	3.144374191082487	0	0
0.55	4.734993921037704	42.47850197403746	-93.67220405240154	0	0.9399999998679526	0	44.83075285679704	-11.92116889857102	0	60.05521746837697	1.048161277824392	-5.868265776875166	0	0	44.83075285679704	-11.92116889857102	0	60.05521746837697	1.048161277824392	-5.868265776875166	0	0	-3.329947562749404	36.44791490048645	-26.47506930025315	50.91688595666649	5.173673921932948	52.5025821936387	0.1219901535546437	3.143101127590043	0	0	0	-8.801422773529577	0	86.90696152174097	3.143101127590043	0	0
0.5600000000000001	4.728193953792164	42.49420577461617	-93.67320526750518	0	0.9399999998679526	0	44.83086390021453	-11.91676159074737	0	60.05518907788553	1.04816078231684	-5.865672855522797	0	0	44.83086390021453	-11.91676159074737	0	60.05518907788553	1.04816078231684	-5.865672855522797	0	0	-2.610039334852179	35.91798578274123	-27.71826261470258	49.91968101082063	6.209725294522809	52.95161385075074	0.1427147780807976	3.141664057417696	0	0	0	-8.80351352113224	0	86.90837557236938	3.141664057417696	0	0
0.57	4.743764306954697	42.47139179543365	-93.66087210967711	0	0.9399999998679526	0	44.83089817451003	-11.91539790446055	0	60.05518033891938	1.048160629793107	-5.864870389603777	0	0	44.83089817451003	-11.91539790446055	0	60.05518033891938	1.048160629793107	-5.864870389603777	0	0	-2.594364298438905	35.90899004260509	-27.76101672795505	50.09652380067084	5.198288233969598	52.74822860063867	0.1837862928532122	3.141220920148045	0	0	0	-8.804157685043108	0	86.90881161121312	3.141220920148045	0	0
0.58	3.507101044452965	42.33059154559771	-92.57817271009772	0	0.9399999998679526	0	44.83097319781347	-11.91241895967156	0	60.05516118956151	1.048160295573763	-5.863118401087752	0	0	44.83097319781347	-11.91241895967156	0	60.05516118956151	1.048160295573763	-5.863118401087752	0	0	-2.668488945006549	36.83376946815616	-27.97712496762071	49.95610128672651	4.264968969738201	52.52593512301654	0.8600184737206028	3.140250465753408	0	0	0	-8.805568926143376	0	86.90976652041445	3.140250465753408	0	0
